Coordinates
version=1
nRows=8
nColumns=40
inDegrees=yes

Units are S.I. units (second, meters, Newtons, ...)
If the header above contains a line with 'inDegrees', this indicates whether rotational values are in degrees (yes) or radians (no).

endheader
time	pelvis_tilt	pelvis_list	pelvis_rotation	pelvis_tx	pelvis_ty	pelvis_tz	hip_flexion_r	hip_adduction_r	hip_rotation_r	knee_angle_r	knee_angle_r_beta	ankle_angle_r	subtalar_angle_r	mtp_angle_r	hip_flexion_l	hip_adduction_l	hip_rotation_l	knee_angle_l	knee_angle_l_beta	ankle_angle_l	subtalar_angle_l	mtp_angle_l	lumbar_extension	lumbar_bending	lumbar_rotation	arm_flex_r	arm_add_r	arm_rot_r	elbow_flex_r	pro_sup_r	wrist_flex_r	wrist_dev_r	arm_flex_l	arm_add_l	arm_rot_l	elbow_flex_l	pro_sup_l	wrist_flex_l	wrist_dev_l
      5.44000000000000039080	     47.92211462355867723772	     -0.80720229120034481252	   -178.41237877349070117816	      0.42650233162351242067	      0.76415122383451528076	     -0.61268295306405307077	     85.57824893485123141090	    -11.47158756832757120492	     -9.64683382696845548310	     37.55110586231441516247	      0.65539043506233107816	      1.18076069374287717650	      0.00000000000000000000	      0.00000000000000000000	     84.05618988834994809167	     -6.50984789095335525388	     -6.35344405831096104009	     33.70408508245736101117	      0.58824725606118544174	     -2.11834891730526919673	      0.00000000000000000000	      0.00000000000000000000	    -27.39112605596115912476	      4.94438325332865424855	      2.61251003876413667726	     63.89980846247376433666	    -10.75893228525649725213	     49.70668361933155665611	      0.84655454604497304416	     85.87371167861698495472	      0.00000000000000000000	      0.00000000000000000000	     51.74140202408989352989	     -1.27401308928411616250	     53.00338140287095711756	      0.55897076698324676958	      2.46805398553544685925	      0.00000000000000000000	      0.00000000000000000000
      5.44500000000000028422	     47.86236267022820101147	     -0.79897982843397263863	   -178.36704703527399828999	      0.42613743015499572220	      0.76539165637312822632	     -0.61247424674882899875	     85.25931071337276989652	    -11.50552051190828350968	     -9.81927262817542079176	     37.17436725860063972959	      0.64881510600815950340	      0.95718925617671235528	      0.00000000000000000000	      0.00000000000000000000	     83.73154556088530853231	     -6.42507310218333049789	     -6.41922942547264341329	     33.26421055640722812541	      0.58056999728596103694	     -2.30271177909912605486	      0.00000000000000000000	      0.00000000000000000000	    -27.30985880354004535775	      4.99150770685439670871	      2.54596851355913811332	     63.68775702421094564443	    -10.76177983577373531432	     49.81202122730524450844	      0.84328997978238118272	     85.82877760915941678377	      0.00000000000000000000	      0.00000000000000000000	     51.50605688491874190049	     -1.29209979970780719505	     53.09634602527521707316	      0.55762741653962233368	      2.46424377859358667564	      0.00000000000000000000	      0.00000000000000000000
      5.45000000000000017764	     47.81372296335366911535	     -0.88640822160189580714	   -178.35114674444878346549	      0.42589811815130224071	      0.76661378991335127342	     -0.61224700979638213560	     84.97847829583905365780	    -11.50611536350061925305	     -9.76873330552946406158	     36.74701886108249482277	      0.64135646941834634216	      0.69430909827715336924	      0.00000000000000000000	      0.00000000000000000000	     83.38115356620838269919	     -6.33494467373177894132	     -6.52605008987903989492	     32.79723848515759243583	      0.57241979712779733624	     -2.59855467798559747195	      0.00000000000000000000	      0.00000000000000000000	    -27.20142471836020092724	      4.93406088938391107490	      2.53550556762933432253	     63.47055946051347063985	    -10.83696042856763774864	     50.08458347694460144339	      0.84624520575219419616	     85.76109610311611675115	      0.00000000000000000000	      0.00000000000000000000	     51.09428280272994271627	     -1.37338050761685437351	     54.95508481074313067438	      0.55379299593895847664	      2.43876109407610108804	      0.00000000000000000000	      0.00000000000000000000
      5.45500000000000007105	     47.68423836181630548481	     -0.76088638724984036799	   -178.36101325791685212607	      0.42546118418445877385	      0.76791869139126456290	     -0.61229860808673164385	     84.53253775402978931197	    -11.43705556357831021330	    -10.01433094911103438562	     36.31724683873206771523	      0.63385553259537674720	      0.56118013950484779695	      0.00000000000000000000	      0.00000000000000000000	     83.02412643514092849273	     -6.37338405223610138250	     -6.51872228171508094619	     32.41888472933200660009	      0.56581627835135428484	     -2.72962593331343761349	      0.00000000000000000000	      0.00000000000000000000	    -27.19911212256857169223	      5.06513000939302227010	      2.61764987898671108724	     63.27222300426189605105	    -10.89065790099038899541	     50.23692586372393265037	      0.84632774104464014719	     85.75237992905938710919	      0.00000000000000000000	      0.00000000000000000000	     50.83589597198484710816	     -1.40971688553430851698	     55.70243094973955066962	      0.55056312997461986924	      2.42551807698487342790	      0.00000000000000000000	      0.00000000000000000000
      5.45999999999999996447	     47.63251157530356039160	     -0.80917705343026080644	   -178.38497161821487679845	      0.42519499924972159466	      0.76902164349035806445	     -0.61219149042985210318	     84.24616860182241850907	    -11.36230817734727516211	     -9.92330704417900300029	     35.90272990640154660014	      0.62662084732094258666	      0.40116788327512825640	      0.00000000000000000000	      0.00000000000000000000	     82.70244715533057444645	     -6.33429002306756316898	     -6.58645837540020728795	     32.00375815345113039712	      0.55857095278970292362	     -2.92886448365491247614	      0.00000000000000000000	      0.00000000000000000000	    -27.07896808668094834616	      5.02626057997372743813	      2.62903224417951975056	     63.03677962605255657991	    -10.92803971382430994197	     50.49353452415896015282	      0.85106101559601443629	     85.72503914530321367238	      0.00000000000000000000	      0.00000000000000000000	     50.51458006086740937235	     -1.46857419121870735879	     56.70777490809400944727	      0.54712006024196269127	      2.43667761086369161205	      0.00000000000000000000	      0.00000000000000000000
      5.46499999999999985789	     47.62625615466202333437	     -0.79273128447145979614	   -178.37852961887830360865	      0.42491484498898685063	      0.77001705174575074686	     -0.61211890594557938350	     84.03548597233661610062	    -11.38961291539961351305	    -10.18805636507781109401	     35.61531254325375073222	      0.62160446800661328659	      0.30844362507248457295	      0.00000000000000000000	      0.00000000000000000000	     82.49193021650297907854	     -6.33252524269140515401	     -6.72331158363050818139	     31.68958110098639124885	      0.55308752878998224123	     -2.98852913003202269593	      0.00000000000000000000	      0.00000000000000000000	    -26.90178387249502023337	      5.05182078398056333413	      2.61936558234812055801	     62.79175664132546330620	    -10.94404533413016800125	     50.52861872196969983406	      0.84851981193370096257	     85.72648060916073120552	      0.00000000000000000000	      0.00000000000000000000	     50.30285844509226933496	     -1.47294443664089658164	     56.73275866118389387793	      0.54831852298579231153	      2.43066581209055554424	      0.00000000000000000000	      0.00000000000000000000
      5.46999999999999975131	     47.56335307916981491871	     -0.75068069111997837162	   -178.34990945878917045775	      0.42460554682549195293	      0.77125199142080103076	     -0.61198394566788716364	     83.68512259837201838764	    -11.36255034416612730297	    -10.28114931374667939679	     35.16338499423767416374	      0.61371684429581474518	      0.13066988649351646279	      0.00000000000000000000	      0.00000000000000000000	     82.16138579293567545392	     -6.29147831645487531915	     -6.81221713523570748805	     31.23606226656253426199	      0.54517213190947888535	     -3.19093308921875440376	      0.00000000000000000000	      0.00000000000000000000	    -26.80299226339035101319	      5.12679175387826724375	      2.62902185449903980086	     62.58083803004605272235	    -10.98610791821809584690	     50.62799936145503920670	      0.84455553940578276251	     85.73265832559697230408	      0.00000000000000000000	      0.00000000000000000000	     50.10984849594410661666	     -1.45707468300864073640	     56.82060459738359270432	      0.54813135990892358773	      2.43029272559951037280	      0.00000000000000000000	      0.00000000000000000000
      5.47499999999999964473	     47.45164989971763702670	     -0.67086802316088856024	   -178.40020490998421109907	      0.42429050660224648661	      0.77243402390042137373	     -0.61207616837891565265	     83.27472528255523798180	    -11.20501500108930414967	    -10.29043090000855897870	     34.69099009813037071126	      0.60547199798912576529	     -0.10803612099983760098	      0.00000000000000000000	      0.00000000000000000000	     81.81960706139672367954	     -6.30334336103162762299	     -6.62751645083483520438	     30.83847443907830054854	      0.53823291525402783275	     -3.46036758377943964859	      0.00000000000000000000	      0.00000000000000000000	    -26.74279182696344392411	      5.19096238646209862111	      2.75008750509248134364	     62.34391685714647479699	    -11.07095361928938892504	     50.98188322220944002083	      0.84425118048609859578	     85.68728910696401612768	      0.00000000000000000000	      0.00000000000000000000	     49.68997135719669699938	     -1.56015764233893672319	     58.76120617021040715144	      0.54384359167554119363	      2.40195086490164788628	      0.00000000000000000000	      0.00000000000000000000
